<?xml version="1.0" encoding="utf-8"?>
<!-- Generator: Adobe Illustrator 19.0.0, SVG Export Plug-In . SVG Version: 6.00 Build 0)  -->
<svg version="1.1" id="Layer_1" xmlns="http://www.w3.org/2000/svg" xmlns:xlink="http://www.w3.org/1999/xlink" x="0px" y="0px"
	 viewBox="0 0 511 383.3" style="enable-background:new 0 0 511 383.3;" xml:space="preserve">
<style type="text/css">
	.st0{fill:#FFFFFF;}
</style>
<g id="XMLID_164_">
	<path id="XMLID_51_" class="st0" d="M307.5,241.6c-19.1-41.2-36.9-76.4-51.8-112.8c-10.6-25.9,0.2-47.8,21.8-63.7
		c22.1-16.3,53.4-15.6,73,2c20.4,18.3,30.7,42.3,18,68C351.4,169.7,330.3,202.3,307.5,241.6z M352.9,102.2
		c-7-22.5-31.5-35.7-52.9-28.6c-21.7,7.2-34.7,32.8-27.3,53.8c7.6,21.7,29.3,32.9,50.9,26.4C347.9,146.6,360.1,125,352.9,102.2z"/>
</g>
<circle id="XMLID_163_" class="st0" cx="312.1" cy="113.7" r="21.3"/>
<g id="XMLID_39_">
	<g id="XMLID_131_">
		<path id="XMLID_159_" class="st0" d="M54.3,184.5l-10.7,0c-2.5,0-4.8-1.1-6.5-3.1c-1.5-1.8-2.3-4-2.3-6.4l0-107.7
			c0-2.4,0.8-4.7,2.4-6.5c1.7-2,4-3,6.5-3l62.3,0c3.5,0,5.5,1.6,6.6,3c1.4,1.7,2.1,3.7,2.1,6l0,8.4c0,2.2-0.7,4.3-2.1,6
			c-1.1,1.4-3.1,3-6.6,3l-42.7,0l0,28.9l33.5,0c2.7,0,5.1,1.1,6.6,3.1c1.3,1.7,2,3.7,2,5.9l0,8.3c0,2.2-0.7,4.3-2.1,6
			c-1.1,1.4-3.1,3-6.6,3l-33.6,0l0,35.9c0,2.4-0.8,4.7-2.4,6.5C59.1,183.5,56.8,184.5,54.3,184.5z M44.1,175.3l9.9,0
			c0-0.1,0-0.1,0-0.3l0-45.2l42.3,0l0-7.7l-42.2,0l0-47.4l51.4,0l0-7.8l-61.3,0c0,0.1,0,0.1,0,0.3L44,175
			C44,175.1,44,175.2,44.1,175.3z M99.8,118.8l-3.6,2.9c0,0,0.1,0.1,0.1,0.1L99.8,118.8z"/>
		<path id="XMLID_137_" class="st0" d="M181.6,186.5c-7.6,0-14.2-0.8-19.7-2.5c-5.5-1.6-10.5-4-15.1-6.9c-4.5-3-8.6-6.5-12.1-10.6
			c-3.5-4.1-6.4-8.6-8.8-13.5c-2.3-4.9-4.1-10.1-5.4-15.6c-1.2-5.5-1.8-12-1.8-19.4c0-7.6,1.5-15.4,4.4-23.2
			c2.9-7.9,7.2-14.7,12.6-20.5c11.4-12.2,26.4-18.3,44.5-18.3c19.2,0,34.5,6.3,45.6,18.8c10.4,11.7,15.7,27.1,15.7,45.7
			c0,18.5-5.8,34.2-17.2,46.7c-5.4,6-12,10.7-19.5,14.2C197.2,184.7,189.4,186.5,181.6,186.5z M180.2,65.1c-15.6,0-28,5-37.7,15.4
			c-4.6,4.8-8.1,10.7-10.7,17.4c-2.5,6.8-3.8,13.5-3.8,20c0,6.7,0.5,12.6,1.6,17.4c1.1,4.8,2.6,9.4,4.7,13.6l0,0
			c2,4.2,4.5,8.1,7.5,11.5c2.9,3.4,6.3,6.4,10.1,8.9c3.8,2.5,8,4.4,12.6,5.8c4.6,1.4,10.3,2.1,17,2.1c6.5,0,13-1.5,19.4-4.4
			c6.4-2.9,11.9-6.9,16.5-12c9.9-10.9,14.8-24.2,14.8-40.5c0-16.3-4.5-29.6-13.3-39.6C209.5,70.2,196.9,65.1,180.2,65.1z M180,168.8
			c-13.2,0-23.7-5.2-31-15.5c-3.2-4.6-5.6-9.8-7.2-15.6c-1.5-5.6-2.3-11.7-2.3-17.9c0-13.3,3.6-24.4,10.7-32.9
			c7.4-8.9,17.4-13.5,29.8-13.5c12.8,0,23.1,4.9,30.6,14.4c6.6,8.6,10,19.5,10,32.4c0,13.6-3.3,25-9.7,33.7
			C203.7,163.8,193.2,168.8,180,168.8z M180.1,82.6c-9.6,0-17,3.3-22.7,10.1c-5.7,6.9-8.6,15.9-8.6,27c0,5.4,0.7,10.7,2,15.5
			c1.3,4.7,3.2,9,5.8,12.6c5.6,7.8,13.2,11.6,23.4,11.6c10.3,0,18-3.6,23.5-11.1c5.2-7.1,7.9-16.6,7.9-28.2c0-10.9-2.7-19.9-8-26.8
			C197.7,86.2,190.1,82.6,180.1,82.6z"/>
		<path id="XMLID_132_" class="st0" d="M419.8,184.5l-22.9,0c-4.4,0-7-2-8.5-3.6c-1.9-2.2-3-4.9-3-7.8l0-104.1c0-2.9,1-5.6,3-7.8
			c1.4-1.6,4.1-3.5,8.5-3.5l24.3,0c21.4,0,37.9,5.5,48.9,16.3c10.6,10.5,16,25.4,16,44.5c0,20.2-6,36.5-17.7,48.2
			C456.6,178.6,440.3,184.5,419.8,184.5z M396.9,67c-1.2,0-1.5,0.3-1.6,0.5c-0.4,0.5-0.6,0.9-0.6,1.6l0,104.1c0,0.7,0.2,1.1,0.6,1.6
			c0.1,0.1,0.4,0.5,1.6,0.5l22.9,0c17.9,0,32-5.1,42-15c10-10,15-24,15-41.7c0-16.5-4.4-29.2-13.2-37.9
			c-9.3-9.1-23.6-13.7-42.4-13.7L396.9,67z M422.3,167.8h-0.5l-17.1-0.3l0-92.5l4.5-0.1c5.2-0.2,8.7-0.2,10.5-0.2h3.8
			c13.5,0,24,3.9,31.3,11.7c3.6,3.9,6.4,8.6,8.2,14.1c1.8,5.3,2.6,11.7,2.6,18.9c0,7.1-0.8,13.7-2.4,19.6
			C458.2,157.8,444,167.8,422.3,167.8z M413.9,158.4l8,0.1l0.4,0c17.6,0,28.1-7.3,32-22.2c1.4-5.1,2.1-10.9,2.1-17.2
			c0-6.2-0.7-11.6-2.2-16c-1.4-4.2-3.5-7.8-6.1-10.7c-5.5-5.9-13.6-8.7-24.5-8.7l-3.8,0c-1.1,0-3,0-5.7,0.1L413.9,158.4z"/>
	</g>
</g>
<g id="XMLID_1_">
	<g id="XMLID_85_">
		<path id="XMLID_92_" class="st0" d="M282.5,217c2.3,1.6,3.8,3.8,4.6,6.8c0.8,2.9,1.2,6.9,1.2,12l0,50.5c0,0.7-0.1,1.1-0.3,1.3
			c-0.2,0.2-0.8,0.3-1.9,0.4c-1.1,0-2.5,0.1-4.3,0.1v-52.9c0-5.4-0.7-9.1-2-11.3s-4.1-3.2-8.3-3.2c-5.5,0-10.4,1.5-14.7,4.5l0,61.3
			c0,0.7-0.1,1.1-0.3,1.3c-0.2,0.2-0.8,0.3-1.9,0.4c-1.1,0-2.5,0.1-4.3,0.1l0-53.1c0-3.8-0.2-6.7-0.6-8.6c-0.4-1.9-1.3-3.3-2.8-4.3
			c-1.5-1-4-1.5-7.4-1.5c-4.9,0-9.8,1.1-14.7,3.3l0,62.4c0,0.6-0.1,1-0.4,1.2c-0.2,0.2-0.9,0.4-1.9,0.4c-1.1,0-2.4,0.1-4.2,0.1
			l0-68.6c7.2-3.2,14.2-4.7,21.1-4.7c7,0,11.7,1.8,14.2,5.3c2.5-1.6,5.4-2.9,8.8-3.9c3.4-1,6.6-1.4,9.6-1.4
			C276.8,214.6,280.2,215.4,282.5,217z"/>
		<path id="XMLID_89_" class="st0" d="M342.1,285.6c-3.7-2.8-5.6-8.6-5.6-17.4c0-9.2,2-15.4,6-18.6c4-3.2,9.4-4.7,16.3-4.7
			c5.2,0,9.2,0.5,12.1,1.6l0-13.1c0-4.8-1-8.1-3.1-9.8c-2.1-1.7-5.1-2.6-9.1-2.6c-4.5,0-8.7,0.4-12.4,1.1c-3.8,0.7-6.7,1.6-8.9,2.5
			c-0.6-1.1-0.9-2.4-0.9-3.7c0-1.3,0.3-2.2,1-2.6c1.6-1,4.6-1.8,8.8-2.5c4.3-0.7,8.9-1.1,13.7-1.1c5.8,0,10.2,1.3,13,4
			c2.8,2.6,4.2,7.1,4.2,13.5v8.9c0,17.6-0.3,31.9-0.9,43.2c-5.5,3.6-11.9,5.3-19.3,5.3C350.9,289.6,345.9,288.3,342.1,285.6z
			 M365.3,282.5c2.3-0.8,3.9-1.6,4.8-2.4c0.5-5.4,0.7-14.9,0.7-28.6c-2.8-1-6.2-1.4-10.2-1.4c-3.6,0-6.7,0.4-9.1,1.2
			c-2.4,0.8-4.5,2.5-6,5.1c-1.6,2.6-2.4,6.5-2.4,11.7c0,4.6,0.7,8.1,2,10.4c1.3,2.3,3.1,3.8,5.2,4.4c2.1,0.6,4.8,0.9,8.1,0.9
			C360.8,283.7,363.1,283.3,365.3,282.5z"/>
		<path id="XMLID_86_" class="st0" d="M427.7,313.8l0-93.2c6-3.9,12.9-5.9,20.7-5.9c7.9,0,13.8,2.3,17.8,6.9c4,4.6,6,12.5,6,23.7
			c0,17.2-2.5,28.8-7.4,35c-4.9,6.1-10.6,9.2-17,9.2c-3,0-5.7-0.6-8.1-1.7c-2.4-1.1-4.2-2.4-5.4-3.9v31.9c-1.1,0.4-2.2,0.6-3.5,0.6
			C428.7,316.4,427.7,315.5,427.7,313.8z M459.4,276c3.9-4.9,5.9-14.6,5.9-29c0-6.9-0.6-12.3-1.9-16.1c-1.3-3.8-3.2-6.5-5.6-8.1
			c-2.4-1.5-5.6-2.3-9.6-2.3c-5.2,0-9.8,1.3-14,3.9l0,51.7c1.3,2.4,3.1,4.2,5.3,5.5c2.2,1.2,4.4,1.9,6.8,1.9
			C451.1,283.4,455.4,280.9,459.4,276z"/>
	</g>
</g>
</svg>
